<svg xmlns="http://www.w3.org/2000/svg" width="800" height="450" viewBox="0 0 800 450"><rect width="100%" height="100%" fill="#EEE"/><path fill="#31343C" d="M222.085 188.735v11.27h-22.23v62.48h-13.72v-62.48h-22.24v-11.27h58.19Zm20.3-2.04v29.07q3.06-2.85 6.73-4.64 3.68-1.78 8.62-1.78 4.29 0 7.6 1.45 3.32 1.45 5.54 4.08 2.21 2.63 3.36 6.27 1.15 3.65 1.15 8.04v33.3h-12.6v-33.3q0-4.8-2.19-7.42-2.19-2.63-6.68-2.63-3.27 0-6.12 1.48-2.86 1.48-5.41 4.03v37.84h-12.6v-75.79h12.6Zm77.42 23.46h12.6v52.33h-7.7q-2.5 0-3.17-2.3l-.86-4.18q-3.22 3.27-7.09 5.28-3.88 2.02-9.13 2.02-4.29 0-7.57-1.46-3.29-1.45-5.54-4.1-2.24-2.66-3.39-6.3-1.15-3.65-1.15-8.03v-33.26h12.6v33.26q0 4.79 2.22 7.42 2.22 2.62 6.65 2.62 3.27 0 6.12-1.45 2.86-1.45 5.41-4v-37.85Zm37.64 52.33h-12.6v-52.33h7.7q2.45 0 3.21 2.3l.82 3.87q1.38-1.53 2.88-2.8 1.51-1.28 3.22-2.19 1.7-.92 3.67-1.46 1.96-.53 4.31-.53 4.94 0 8.13 2.68 3.19 2.67 4.77 7.11 1.22-2.6 3.06-4.46 1.84-1.86 4.03-3.04 2.19-1.17 4.67-1.73 2.47-.56 4.97-.56 4.33 0 7.7 1.32 3.36 1.33 5.66 3.88 2.29 2.55 3.49 6.22 1.2 3.67 1.2 8.42v33.3h-12.6v-33.3q0-5-2.19-7.53-2.19-2.52-6.42-2.52-1.94 0-3.6.66-1.66.67-2.91 1.92-1.25 1.24-1.96 3.13t-.71 4.34v33.3h-12.65v-33.3q0-5.26-2.12-7.65-2.12-2.4-6.2-2.4-2.75 0-5.12 1.35t-4.41 3.7v38.3Zm85.42-37.03v23.46q2.14 2.6 4.67 3.68 2.52 1.07 5.33 1.07 2.91 0 5.23-1.05 2.32-1.04 3.95-3.26 1.63-2.22 2.5-5.66.86-3.45.86-8.24 0-8.62-2.85-12.47-2.86-3.85-8.21-3.85-3.62 0-6.33 1.66-2.7 1.65-5.15 4.66Zm0-38.76v29.89q3.16-3.32 7.02-5.28 3.85-1.96 8.79-1.96 4.54 0 8.19 1.78 3.65 1.79 6.22 5.13 2.58 3.34 3.95 8.08 1.38 4.74 1.38 10.66 0 6.38-1.58 11.58t-4.51 8.9q-2.94 3.69-7.07 5.73-4.13 2.05-9.18 2.05-2.45 0-4.44-.49-1.98-.48-3.67-1.35-1.68-.87-3.08-2.12-1.41-1.25-2.68-2.78l-.56 3.52q-.31 1.33-1.05 1.89-.74.56-2.01.56h-8.31v-75.79h12.59Zm56.21 25.76.86 4.13q1.58-1.58 3.34-2.93 1.76-1.35 3.73-2.3 1.96-.94 4.2-1.48 2.25-.53 4.9-.53 4.28 0 7.6 1.45 3.31 1.45 5.53 4.08t3.37 6.27q1.14 3.65 1.14 8.04v33.3h-12.59v-33.3q0-4.8-2.2-7.42-2.19-2.63-6.68-2.63-3.26 0-6.12 1.48-2.85 1.48-5.4 4.03v37.84h-12.6v-52.33h7.7q2.45 0 3.22 2.3Zm74.25 36.51v-8.82q-5.46.26-9.18.95-3.72.68-5.97 1.75-2.24 1.08-3.21 2.5-.97 1.43-.97 3.11 0 3.32 1.97 4.75 1.96 1.43 5.12 1.43 3.88 0 6.71-1.41 2.83-1.4 5.53-4.26Zm-26.62-27.48-2.25-4.03q9.03-8.27 21.73-8.27 4.59 0 8.21 1.51 3.62 1.5 6.12 4.18 2.5 2.68 3.8 6.4 1.3 3.73 1.3 8.16v33.05h-5.71q-1.79 0-2.75-.54-.97-.53-1.53-2.16l-1.13-3.78q-1.98 1.79-3.87 3.14-1.89 1.35-3.93 2.27-2.04.92-4.36 1.4-2.32.49-5.13.49-3.31 0-6.11-.9-2.81-.89-4.85-2.67-2.04-1.79-3.16-4.44-1.12-2.65-1.12-6.17 0-1.99.66-3.95.66-1.97 2.17-3.75 1.5-1.79 3.9-3.37t5.89-2.75q3.49-1.18 8.13-1.92 4.64-.74 10.61-.89v-3.06q0-5.25-2.24-7.78-2.25-2.52-6.48-2.52-3.06 0-5.07.71-2.02.72-3.55 1.61-1.53.89-2.78 1.61-1.25.71-2.78.71-1.32 0-2.24-.69-.92-.69-1.48-1.6Zm51.15-11.33h12.65v52.33h-12.65v-52.33Zm14.38-15.25q0 1.64-.66 3.06-.66 1.43-1.76 2.5-1.09 1.07-2.57 1.71-1.48.64-3.17.64-1.63 0-3.08-.64-1.45-.64-2.53-1.71-1.07-1.07-1.7-2.5-.64-1.42-.64-3.06 0-1.68.64-3.16.63-1.48 1.7-2.55 1.08-1.07 2.53-1.71 1.45-.63 3.08-.63 1.69 0 3.17.63 1.48.64 2.57 1.71 1.1 1.07 1.76 2.55.66 1.48.66 3.16Zm11.28-8.21h12.59v75.79h-12.59v-75.79Z"/></svg>